<svg width="61" height="61" viewBox="0 0 61 61" fill="none" xmlns="http://www.w3.org/2000/svg">
<g id="email-envelope 1" clip-path="url(#clip0_40_23)">
<g id="Group">
<path id="Vector" d="M5.71837 51.6004C0.916459 51.6004 5.64043 46.728 5.64043 46.728L17.883 33.2734C19.0738 31.9653 21.3715 29.9791 22.715 31.0748C24.0582 32.1703 25.8523 34.3903 27.1017 35.6429L29.6335 38.1768C30.9907 39.3781 32.0349 38.1768 32.0349 38.1768L34.6254 35.6248C35.8854 34.3829 37.6901 32.2162 39.0355 31.2083C40.3809 30.2004 42.6692 32.1171 43.8566 33.4283L56.0276 46.8766C60.8316 51.6005 56.1055 51.6005 56.1055 51.6005H5.71837V51.6004ZM7.79647 40.5312C6.60576 41.8403 4.86632 44.1168 3.69072 45.4389C2.36337 46.9308 0.845978 48.0636 0.845978 45.4507L0.903697 19.2024C0.908016 17.433 0.858935 14.0587 2.06771 14.6642C2.51729 14.8896 3.13238 15.3582 3.96735 16.1943L13.8747 24.3002C15.2437 25.4204 17.1731 26.7914 17.8043 27.7045C18.2027 28.2801 18.3852 28.9496 17.8086 29.5283L7.79647 40.5312ZM34.5006 31.2059C33.1328 32.3281 31.6462 33.9203 30.887 33.9225C30.1278 33.9235 28.6136 32.3678 27.2393 31.2529L5.68224 13.7662C4.30797 12.6525 1.94068 10.409 3.11726 9.8077C3.96715 9.37304 5.45254 9.3805 5.45254 9.3805H56.11C60.6707 9.3805 58.3515 11.6325 58.3515 11.6325L34.5006 31.2059ZM57.9981 45.4389C56.8203 44.118 55.0797 41.8403 53.8902 40.5312L43.8837 29.5272C43.304 28.9484 43.4854 28.2789 43.8837 27.7033C44.5147 26.7904 46.4454 25.4202 47.8155 24.3002L55.2454 18.2222C56.6144 17.102 58.4147 15.2697 59.6225 14.6642C60.8303 14.0587 60.7779 17.4341 60.7822 19.2024L60.8462 45.4507C60.847 48.0636 59.3274 46.9308 57.9981 45.4389Z" fill="#A3CDFC"/>
</g>
</g>
<defs>
<clipPath id="clip0_40_23">
<rect width="60" height="60" fill="white" transform="translate(0.845978 0.49054)"/>
</clipPath>
</defs>
</svg>
