<svg width="64" height="72" viewBox="0 0 64 72" fill="none" xmlns="http://www.w3.org/2000/svg">
<g id="Group">
<path id="rect1305" d="M25.5254 40.0585H40.6335C40.6335 40.0585 33.1794 60.7058 43.4718 66.8793C31.2945 63.1281 44.8909 73.2595 33.789 68.0608C34.0109 66.643 31.6713 64.3687 22.214 67.8245C33.5648 57.375 25.5254 40.0585 25.5254 40.0585Z" fill="#5E9FD5" stroke="#A3CDFC" stroke-width="4" stroke-linecap="round" stroke-linejoin="round"/>
<path id="path2035" d="M36.3166 2C29.778 2 24.0036 4.35951 20.4827 7.96366C10.2 8.32356 2 14.4891 2 22.0543C2 26.4644 4.78774 30.4021 9.14728 32.9927C9.66067 40.5158 19.9418 46.5266 32.5407 46.5266C45.4672 46.5266 55.957 40.1993 55.957 32.403C55.957 32.3645 55.9499 32.327 55.9494 32.2886C59.6568 30.6113 62 28.1973 62 25.5038C62 22.6918 59.4562 20.1769 55.4608 18.4954C55.6426 17.7242 55.7407 16.9331 55.7407 16.1236C55.7407 8.32733 47.0391 2 36.3166 2Z" fill="#5E9FD5" stroke="#A3CDFC" stroke-width="4" stroke-linecap="round" stroke-linejoin="round"/>
<path id="Line 2" d="M2.99687 27.25H17.9969" stroke="#A3CDFC" stroke-width="2" stroke-linecap="round"/>
<path id="Line 4" d="M51 26H61" stroke="#A3CDFC" stroke-width="2" stroke-linecap="round"/>
<path id="Line 6" d="M42 13.1284L47.1423 7" stroke="#A3CDFC" stroke-width="1.5" stroke-linecap="round"/>
<path id="Line 8" d="M18.507 42.6353L31 35" stroke="#A3CDFC" stroke-width="1.5" stroke-linecap="round"/>
<path id="Line 7" d="M42 19V14" stroke="#A3CDFC" stroke-width="1.5" stroke-linecap="round"/>
<path id="Line 9" d="M31 35V31" stroke="#A3CDFC" stroke-width="1.5" stroke-linecap="round"/>
<path id="Line 3" d="M18 26.9261L25.2131 20" stroke="#A3CDFC" stroke-width="2" stroke-linecap="round"/>
<path id="Line 5" d="M44 33.6604L50.4279 26" stroke="#A3CDFC" stroke-width="2" stroke-linecap="round"/>
<circle id="Ellipse 2" cx="28" cy="17" r="3" stroke="#A3CDFC" stroke-width="2"/>
<circle id="Ellipse 4" cx="42" cy="22" r="2.25" stroke="#A3CDFC" stroke-width="1.5"/>
<circle id="Ellipse 5" cx="31" cy="28" r="2.25" stroke="#A3CDFC" stroke-width="1.5"/>
<circle id="Ellipse 3" cx="42" cy="36" r="3" stroke="#A3CDFC" stroke-width="2"/>
</g>
</svg>
