<svg width="1080" height="921" viewBox="0 0 1080 921" fill="none" xmlns="http://www.w3.org/2000/svg">
<circle cx="360" cy="561" r="350" stroke="#A3CDFC" stroke-width="20"/>
<circle cx="720" cy="360" r="350" stroke="#A3CDFC" stroke-width="20"/>
<g clip-path="url(#clip0_87_231)">
<path d="M894.409 200.409C896.205 200.726 897.853 201.3 899.353 202.13C900.853 202.961 901.992 204.087 902.77 205.511C903.548 206.934 903.748 208.719 903.369 210.864C903.009 212.91 901.998 214.558 900.337 215.809C898.676 217.059 896.634 217.986 894.213 218.588C891.801 219.14 889.269 219.491 886.619 219.641C883.969 219.791 881.449 219.784 879.06 219.62C878.514 222.714 878.356 225.361 878.585 227.562C878.864 229.772 879.535 231.511 880.598 232.779C881.661 234.047 883.165 234.852 885.111 235.195C886.558 235.451 888.062 235.381 889.624 234.988C891.235 234.603 892.828 233.881 894.404 232.821C895.989 231.711 897.515 230.206 898.982 228.303L901.202 230.161C899.347 232.509 897.472 234.391 895.576 235.806C893.68 237.221 891.714 238.16 889.677 238.624C887.64 239.088 885.474 239.118 883.179 238.713C878.438 237.877 875.205 235.79 873.479 232.45C871.762 229.06 871.329 224.945 872.183 220.105C872.693 217.211 873.565 214.458 874.797 211.846C876.029 209.233 877.583 206.986 879.458 205.105C881.342 203.173 883.542 201.786 886.057 200.943C888.581 200.051 891.365 199.873 894.409 200.409ZM892.912 202.769C890.617 202.365 888.584 202.804 886.815 204.087C885.095 205.378 883.62 207.176 882.391 209.48C881.211 211.793 880.284 214.279 879.61 216.939C882.316 217.056 884.945 216.876 887.499 216.4C890.052 215.925 892.226 215.125 894.019 214C895.821 212.826 896.889 211.291 897.223 209.395C897.505 207.798 897.293 206.372 896.589 205.115C895.934 203.868 894.708 203.086 892.912 202.769Z" fill="#A3CDFC"/>
</g>
<g clip-path="url(#clip1_87_231)">
<path d="M774.505 383.877C773.395 383.974 772.457 383.726 771.693 383.131C770.984 382.583 770.588 381.829 770.504 380.87C770.411 379.81 770.666 378.949 771.269 378.286C771.919 377.568 772.647 377.173 773.455 377.103C774.06 377.05 774.626 377.127 775.153 377.336C775.676 377.493 776.133 377.784 776.526 378.207C777.455 377.77 778.176 376.715 778.691 375.043C779.206 373.37 779.564 371.355 779.764 368.998C780.011 366.586 780.123 364.084 780.099 361.492C780.122 358.846 780.105 356.329 780.049 353.944C779.993 351.558 779.92 349.556 779.829 347.936C777.86 348.109 776.309 348.397 775.174 348.801C774.09 349.201 772.921 349.787 771.666 350.558L770.309 348.998C771.355 347.584 772.694 346.323 774.327 345.213C775.954 344.054 777.954 343.37 780.327 343.163C782.951 342.933 785.389 342.898 787.641 343.057C789.889 343.165 792.037 343.308 794.087 343.485C796.132 343.611 798.114 343.59 800.032 343.422C801.345 343.307 802.545 343.075 803.633 342.726C804.717 342.326 805.958 341.683 807.355 340.798L808.63 342.289C808.137 343.044 807.375 343.924 806.344 344.93C805.313 345.936 804.037 346.759 802.516 347.401C802.646 351.204 802.775 355.007 802.904 358.811C803.029 362.563 803.156 366.341 803.286 370.144C803.364 372.782 803.702 374.609 804.299 375.625C804.892 376.59 805.719 377.027 806.779 376.934C807.182 376.898 807.58 376.787 807.97 376.601C808.411 376.41 808.846 376.143 809.273 375.8L810.288 376.932C809.707 377.847 808.747 378.796 807.409 379.778C806.117 380.705 804.739 381.232 803.275 381.36C801.912 381.479 800.853 381.292 800.098 380.799C799.343 380.305 798.778 379.668 798.405 378.887C798.027 378.055 797.775 377.213 797.65 376.359C797.57 375.451 797.525 374.641 797.514 373.93C797.479 371.797 797.42 369.666 797.336 367.537C797.302 365.404 797.242 363.273 797.158 361.144C797.073 359.015 796.989 356.887 796.904 354.758C796.87 352.625 796.836 350.492 796.802 348.359C795.027 348.412 793.346 348.381 791.759 348.266C790.172 348.15 788.636 348.03 787.15 347.906C785.664 347.782 784.185 347.733 782.712 347.76C782.848 351.054 782.936 354.098 782.977 356.892C783.069 359.681 783.09 362.248 783.041 364.592C783.042 366.931 782.95 369.075 782.764 371.024C782.579 372.973 782.249 374.731 781.776 376.299C781.242 378.329 780.401 380.055 779.254 381.478C778.107 382.901 776.524 383.7 774.505 383.877Z" fill="#A3CDFC"/>
</g>
<g clip-path="url(#clip2_87_231)">
<path d="M860.827 509.562L857.616 480.921C857.41 479.325 857.268 478.057 857.19 477.117C857.12 476.13 857.112 475.349 857.165 474.773L848.339 472.998L849.035 470.708L862.791 473.133L864.42 490.017C864.615 491.952 864.778 493.93 864.909 495.952C865.048 497.926 865.215 499.881 865.41 501.816L865.552 501.841C866.577 500.17 867.607 498.475 868.642 496.756C869.676 495.038 870.706 493.343 871.731 491.672L895.537 452.441L916.88 456.205L916.109 458.92L897.356 455.394L864.018 510.125L860.827 509.562ZM945.16 468.283L942.483 477.242L919.777 473.75L915.383 489.133C916.554 488.852 917.999 488.668 919.721 488.582C921.489 488.504 923.39 488.644 925.422 489.002C928.353 489.519 930.704 490.421 932.475 491.708C934.302 492.956 935.646 494.461 936.505 496.221C937.412 497.989 937.935 499.86 938.074 501.834C938.222 503.761 938.077 505.685 937.641 507.607C936.835 511.072 935.373 513.836 933.255 515.899C931.136 517.963 928.621 519.371 925.71 520.125C922.855 520.84 919.89 520.927 916.818 520.385C913.793 519.852 911.355 518.886 909.506 517.487C907.704 516.097 906.468 514.539 905.797 512.812C905.127 511.086 905.005 509.431 905.43 507.849C905.716 506.778 906.244 505.994 907.014 505.496C907.784 504.999 908.619 504.829 909.517 504.987C910.179 505.104 910.721 505.346 911.144 505.713C911.566 506.08 911.854 506.52 912.007 507.035C912.207 507.558 912.257 508.103 912.157 508.67C912.082 509.095 911.924 509.579 911.682 510.121C911.449 510.616 911.105 511.043 910.652 511.402C910.491 512.592 910.769 513.64 911.487 514.547C912.213 515.406 913.161 516.109 914.332 516.657C915.502 517.204 916.635 517.55 917.731 517.695C920.072 517.961 922.099 517.661 923.812 516.793C925.572 515.934 927.008 514.7 928.12 513.093C929.24 511.438 929.999 509.622 930.396 507.645C930.724 506.338 930.935 504.865 931.03 503.224C931.171 501.592 931.04 499.985 930.637 498.403C930.234 496.821 929.383 495.428 928.084 494.224C926.832 493.028 924.954 492.21 922.449 491.768C921.267 491.56 919.863 491.507 918.236 491.61C916.665 491.674 915.091 492.03 913.515 492.679L911.913 490.568L917.757 468.203L935.059 471.254C937.706 471.721 939.659 471.7 940.919 471.191C942.186 470.634 942.986 469.557 943.316 467.958L945.16 468.283Z" fill="#A3CDFC"/>
</g>
<g clip-path="url(#clip3_87_231)">
<path d="M645.266 200.152L642.458 197.416L685.298 147.448L688.466 150.472L645.266 200.152ZM650.234 174.88C647.402 174.88 645.05 174.232 643.178 172.936C641.306 171.64 639.938 169.984 639.074 167.968C638.21 165.904 637.826 163.72 637.922 161.416C638.066 159.16 638.69 156.976 639.794 154.864C640.898 152.752 642.458 151 644.474 149.608C646.49 148.216 648.89 147.496 651.674 147.448C654.65 147.352 657.074 147.952 658.946 149.248C660.866 150.544 662.258 152.224 663.122 154.288C663.986 156.352 664.346 158.488 664.202 160.696C664.106 163.144 663.386 165.448 662.042 167.608C660.746 169.768 659.066 171.52 657.002 172.864C654.938 174.208 652.682 174.88 650.234 174.88ZM650.594 172.144C651.89 172.144 652.994 171.832 653.906 171.208C654.818 170.584 655.562 169.768 656.138 168.76C656.714 167.752 657.146 166.648 657.434 165.448C657.722 164.248 657.89 163.096 657.938 161.992C658.034 160.792 657.986 159.52 657.794 158.176C657.65 156.784 657.338 155.488 656.858 154.288C656.426 153.04 655.778 152.032 654.914 151.264C654.05 150.496 652.946 150.112 651.602 150.112C650.258 150.112 649.106 150.472 648.146 151.192C647.234 151.864 646.49 152.752 645.914 153.856C645.338 154.912 644.906 156.04 644.618 157.24C644.378 158.392 644.234 159.424 644.186 160.336C644.09 161.488 644.09 162.76 644.186 164.152C644.33 165.496 644.642 166.768 645.122 167.968C645.602 169.168 646.274 170.176 647.138 170.992C648.002 171.76 649.154 172.144 650.594 172.144ZM680.114 200.152C677.282 200.152 674.93 199.504 673.058 198.208C671.186 196.912 669.818 195.256 668.954 193.24C668.09 191.176 667.706 188.992 667.802 186.688C667.946 184.432 668.57 182.248 669.674 180.136C670.778 178.024 672.338 176.272 674.354 174.88C676.37 173.488 678.77 172.768 681.554 172.72C684.53 172.672 686.954 173.296 688.826 174.592C690.698 175.888 692.066 177.568 692.93 179.632C693.794 181.696 694.178 183.832 694.082 186.04C693.986 188.488 693.266 190.792 691.922 192.952C690.626 195.112 688.946 196.864 686.882 198.208C684.818 199.504 682.562 200.152 680.114 200.152ZM680.474 197.488C682.25 197.488 683.642 196.96 684.65 195.904C685.706 194.8 686.474 193.48 686.954 191.944C687.482 190.36 687.77 188.824 687.818 187.336C687.914 186.136 687.866 184.864 687.674 183.52C687.53 182.128 687.218 180.832 686.738 179.632C686.306 178.384 685.658 177.376 684.794 176.608C683.93 175.84 682.826 175.456 681.482 175.456C680.138 175.456 678.986 175.816 678.026 176.536C677.114 177.256 676.37 178.168 675.794 179.272C675.266 180.328 674.858 181.432 674.57 182.584C674.282 183.736 674.114 184.768 674.066 185.68C674.018 186.832 674.042 188.104 674.138 189.496C674.282 190.84 674.57 192.112 675.002 193.312C675.482 194.512 676.154 195.52 677.018 196.336C677.882 197.104 679.034 197.488 680.474 197.488Z" fill="#A3CDFC"/>
</g>
<g clip-path="url(#clip4_87_231)">
<path d="M422.607 339L429.687 303.48C430.287 300.52 431.487 298.24 433.287 296.64C435.127 295 437.527 294.18 440.487 294.18C441.767 294.18 442.967 294.36 444.087 294.72C445.207 295.08 446.127 295.58 446.847 296.22L444.927 299.34C443.807 298.3 442.327 297.78 440.487 297.78C438.647 297.78 437.167 298.28 436.047 299.28C434.967 300.24 434.207 301.8 433.767 303.96L432.807 308.58L432.567 310.44L426.867 339H422.607ZM422.547 311.04L423.207 307.5H442.707L441.987 311.04H422.547ZM447.319 350.64C446.759 349.16 446.259 347.54 445.819 345.78C445.419 344.02 445.099 342.18 444.859 340.26C444.659 338.38 444.559 336.54 444.559 334.74C444.559 331.06 444.879 327.38 445.519 323.7C446.159 319.98 447.059 316.38 448.219 312.9C449.419 309.38 450.839 306.06 452.479 302.94C454.159 299.82 456.019 297 458.059 294.48H462.439C460.319 297.12 458.419 300.06 456.739 303.3C455.059 306.5 453.599 309.86 452.359 313.38C451.159 316.9 450.239 320.5 449.599 324.18C448.959 327.82 448.639 331.42 448.639 334.98C448.639 337.62 448.839 340.2 449.239 342.72C449.679 345.28 450.319 347.92 451.159 350.64H447.319ZM457.045 339L474.025 321.6L473.545 323.7L464.185 307.5H468.685L476.485 321.12L474.565 321.06L487.645 307.5H492.565L476.425 324.12L476.785 321.72L486.805 339H482.245L474.025 324.6H475.945L462.085 339H457.045ZM491.076 350.64C493.196 347.96 495.096 345.02 496.776 341.82C498.496 338.62 499.956 335.26 501.156 331.74C502.356 328.22 503.276 324.64 503.916 321C504.556 317.32 504.876 313.7 504.876 310.14C504.876 307.5 504.676 304.92 504.276 302.4C503.876 299.84 503.236 297.2 502.356 294.48H506.196C506.796 295.92 507.296 297.54 507.696 299.34C508.096 301.1 508.396 302.92 508.596 304.8C508.836 306.68 508.956 308.54 508.956 310.38C508.956 314.06 508.636 317.76 507.996 321.48C507.356 325.16 506.436 328.76 505.236 332.28C504.076 335.76 502.676 339.06 501.036 342.18C499.396 345.3 497.536 348.12 495.456 350.64H491.076Z" fill="#A3CDFC"/>
</g>
<g clip-path="url(#clip5_87_231)">
<path d="M198.007 785.92C195.36 786.387 192.755 786.448 190.192 786.104C187.63 785.76 185.468 785.004 183.708 783.835L185.168 780.507C186.742 781.481 188.584 782.142 190.692 782.49C192.844 782.869 195.042 782.861 197.284 782.465C200.961 781.817 203.511 780.476 204.934 778.444C206.364 776.448 206.761 773.648 206.126 770.045L204.852 762.821L204.528 757.76L203.267 752.865L201.721 744.096L205.471 743.435L209.954 768.858C210.836 773.859 210.249 777.734 208.194 780.485C206.182 783.266 202.787 785.077 198.007 785.92ZM195.161 773.969C192.403 774.455 189.818 774.304 187.404 773.517C184.984 772.693 182.943 771.328 181.28 769.422C179.654 767.51 178.598 765.175 178.112 762.418C177.626 759.66 177.823 757.124 178.703 754.808C179.614 752.448 181.069 750.486 183.067 748.92C185.066 747.355 187.444 746.329 190.201 745.843C192.775 745.389 195.185 745.514 197.432 746.217C199.679 746.92 201.594 748.212 203.177 750.094C204.759 751.976 205.817 754.424 206.348 757.439C206.88 760.454 206.724 763.116 205.88 765.426C205.036 767.735 203.682 769.623 201.818 771.089C199.953 772.555 197.734 773.515 195.161 773.969ZM194.934 770.426C197.066 770.05 198.882 769.275 200.381 768.101C201.873 766.89 202.958 765.41 203.635 763.661C204.306 761.874 204.457 759.933 204.087 757.838C203.718 755.742 202.915 753.988 201.681 752.576C200.446 751.163 198.924 750.162 197.114 749.571C195.297 748.944 193.323 748.818 191.19 749.194C189.094 749.563 187.282 750.357 185.753 751.574C184.254 752.748 183.166 754.21 182.489 755.96C181.848 757.703 181.713 759.622 182.083 761.718C182.452 763.813 183.239 765.589 184.443 767.045C185.678 768.457 187.204 769.477 189.02 770.104C190.867 770.689 192.838 770.796 194.934 770.426ZM221.472 770.467L216.367 741.513L220.117 740.852L221.508 748.738L220.878 747.428C221.298 745.079 222.364 743.166 224.075 741.69C225.779 740.176 228.047 739.17 230.878 738.67L231.549 742.476C231.402 742.502 231.255 742.528 231.107 742.553C230.954 742.543 230.804 742.55 230.657 742.576C227.605 743.114 225.38 744.473 223.983 746.653C222.579 748.796 222.179 751.577 222.782 754.996L225.388 769.776L221.472 770.467ZM259.166 763.82L258.038 757.423L257.688 756.404L255.801 745.705C255.367 743.242 254.335 741.472 252.704 740.394C251.11 739.311 248.953 739.009 246.233 739.488C244.357 739.819 242.629 740.446 241.048 741.369C239.467 742.292 238.179 743.373 237.184 744.609L234.904 741.998C236.154 740.488 237.751 739.221 239.693 738.196C241.629 737.135 243.736 736.403 246.016 736.001C249.766 735.34 252.817 735.769 255.17 737.287C257.553 738.762 259.078 741.393 259.746 745.18L262.916 763.159L259.166 763.82ZM249.233 765.856C247.064 766.239 245.109 766.223 243.368 765.81C241.657 765.353 240.269 764.575 239.203 763.474C238.13 762.336 237.448 760.94 237.156 759.285C236.891 757.778 237 756.356 237.485 755.019C237.999 753.64 239.001 752.44 240.489 751.419C242.007 750.355 244.145 749.58 246.903 749.094L256.885 747.334L257.4 750.257L247.528 751.997C244.734 752.49 242.873 753.33 241.945 754.517C241.054 755.698 240.738 757.024 240.997 758.494C241.289 760.149 242.166 761.359 243.628 762.125C245.09 762.89 246.979 763.069 249.295 762.661C251.501 762.272 253.307 761.442 254.713 760.17C256.149 758.855 257.066 757.177 257.464 755.136L258.823 757.683C258.425 759.724 257.407 761.477 255.77 762.941C254.169 764.398 251.99 765.37 249.233 765.856ZM304.576 725.675C306.929 725.261 309.05 725.36 310.94 725.975C312.861 726.546 314.461 727.666 315.741 729.336C317.058 731 317.962 733.228 318.455 736.022L321.421 752.843L317.505 753.533L314.608 737.099C314.07 734.047 312.929 731.879 311.186 730.594C309.473 729.266 307.294 728.835 304.646 729.302C302.661 729.652 301.008 730.38 299.686 731.485C298.395 732.546 297.484 733.939 296.954 735.663C296.454 737.343 296.399 739.286 296.788 741.492L299.472 756.713L295.556 757.404L292.658 740.969C292.12 737.918 290.98 735.749 289.237 734.465C287.487 733.143 285.289 732.715 282.642 733.182C280.693 733.526 279.058 734.25 277.737 735.355C276.409 736.423 275.48 737.819 274.949 739.543C274.45 741.223 274.394 743.166 274.783 745.372L277.467 760.593L273.552 761.284L268.446 732.33L272.196 731.669L273.577 739.5L272.728 738.229C273.24 735.977 274.367 734.092 276.109 732.571C277.88 731.008 280.108 729.99 282.792 729.517C285.623 729.017 288.157 729.31 290.395 730.393C292.627 731.441 294.287 733.328 295.374 736.055L293.723 735.721C294.154 733.218 295.309 731.062 297.188 729.253C299.098 727.399 301.561 726.207 304.576 725.675ZM363.064 715.362C365.417 714.947 367.538 715.047 369.429 715.662C371.349 716.233 372.949 717.353 374.229 719.023C375.546 720.686 376.451 722.915 376.944 725.709L379.909 742.53L375.994 743.22L373.096 726.786C372.558 723.734 371.417 721.566 369.674 720.281C367.962 718.953 365.782 718.522 363.135 718.989C361.149 719.339 359.496 720.067 358.174 721.172C356.883 722.233 355.972 723.626 355.442 725.35C354.943 727.03 354.887 728.973 355.276 731.179L357.96 746.4L354.044 747.091L351.147 730.656C350.609 727.605 349.468 725.436 347.725 724.151C345.976 722.83 343.777 722.402 341.13 722.869C339.182 723.213 337.547 723.937 336.225 725.042C334.897 726.11 333.968 727.506 333.438 729.23C332.938 730.91 332.883 732.853 333.272 735.059L335.955 750.28L332.04 750.971L326.935 722.017L330.685 721.356L332.066 729.187L331.216 727.915C331.729 725.664 332.856 723.779 334.597 722.258C336.368 720.695 338.596 719.677 341.28 719.203C344.111 718.704 346.646 718.997 348.884 720.08C351.115 721.127 352.775 723.015 353.862 725.742L352.211 725.408C352.642 722.905 353.797 720.749 355.677 718.939C357.587 717.086 360.049 715.894 363.064 715.362ZM408.672 737.458L407.544 731.061L407.194 730.042L405.308 719.343C404.873 716.88 403.841 715.11 402.21 714.032C400.617 712.949 398.459 712.647 395.739 713.127C393.864 713.457 392.136 714.084 390.555 715.007C388.973 715.931 387.685 717.011 386.69 718.248L384.41 715.636C385.661 714.126 387.257 712.859 389.199 711.834C391.135 710.773 393.242 710.041 395.522 709.639C399.272 708.978 402.323 709.407 404.676 710.925C407.059 712.4 408.585 715.031 409.252 718.818L412.422 736.797L408.672 737.458ZM398.739 739.494C396.57 739.877 394.615 739.861 392.874 739.448C391.163 738.991 389.775 738.213 388.709 737.112C387.636 735.974 386.954 734.578 386.662 732.923C386.397 731.416 386.506 729.994 386.991 728.658C387.506 727.278 388.507 726.078 389.995 725.057C391.513 723.993 393.651 723.218 396.409 722.732L406.391 720.972L406.906 723.895L397.035 725.636C394.24 726.128 392.379 726.968 391.451 728.155C390.56 729.336 390.244 730.662 390.503 732.132C390.795 733.787 391.672 734.997 393.134 735.763C394.596 736.529 396.485 736.707 398.801 736.299C401.007 735.91 402.813 735.08 404.219 733.808C405.655 732.493 406.572 730.815 406.97 728.774L408.329 731.321C407.931 733.362 406.913 735.115 405.276 736.579C403.675 738.036 401.496 739.008 398.739 739.494ZM423.058 734.922L417.952 705.968L421.703 705.307L423.093 713.193L422.464 711.883C422.884 709.534 423.949 707.621 425.66 706.145C427.364 704.631 429.632 703.625 432.463 703.125L433.134 706.931C432.987 706.957 432.84 706.983 432.693 707.009C432.539 706.998 432.389 707.005 432.242 707.031C429.19 707.569 426.966 708.928 425.569 711.108C424.165 713.251 423.764 716.032 424.367 719.451L426.973 734.231L423.058 734.922Z" fill="#A3CDFC"/>
</g>
<g clip-path="url(#clip6_87_231)">
<path d="M141.694 458.704L154.642 430.075L157.335 432.768L145.178 459.18L143.951 457.952L170.561 445.994L172.976 448.409L160.938 474.94L159.711 473.712L186.241 461.674L188.815 464.248L160.146 477.157L157.493 474.504L168.66 449.399L169.492 450.231L144.347 461.358L141.694 458.704ZM179.956 497.362C177.949 495.356 176.59 493.099 175.877 490.591C175.217 488.083 175.217 485.575 175.877 483.067C176.563 480.533 177.936 478.236 179.995 476.177C182.081 474.092 184.377 472.719 186.885 472.059C189.393 471.399 191.888 471.412 194.369 472.099C196.851 472.785 199.108 474.145 201.141 476.177C203.2 478.236 204.572 480.507 205.259 482.988C205.971 485.496 205.985 487.991 205.298 490.472C204.638 492.98 203.266 495.277 201.18 497.362C199.121 499.421 196.824 500.794 194.29 501.481C191.809 502.167 189.301 502.167 186.766 501.481C184.259 500.768 181.988 499.395 179.956 497.362ZM182.45 494.868C183.955 496.372 185.618 497.376 187.44 497.877C189.288 498.352 191.149 498.313 193.023 497.758C194.95 497.204 196.719 496.122 198.329 494.511C199.966 492.875 201.048 491.106 201.576 489.205C202.13 487.331 202.157 485.483 201.655 483.661C201.18 481.814 200.203 480.15 198.725 478.672C197.247 477.194 195.584 476.217 193.736 475.742C191.914 475.24 190.053 475.253 188.152 475.781C186.252 476.309 184.483 477.392 182.846 479.028C181.236 480.639 180.154 482.407 179.599 484.335C179.071 486.235 179.045 488.11 179.52 489.957C180.022 491.779 180.998 493.416 182.45 494.868ZM196.506 513.516L217.295 492.727L219.987 495.42L214.325 501.083L215.038 499.816C217.202 498.812 219.38 498.588 221.571 499.142C223.789 499.67 225.914 500.951 227.947 502.983L225.214 505.716C225.109 505.61 225.003 505.504 224.897 505.399C224.818 505.267 224.726 505.148 224.62 505.042C222.429 502.851 220.04 501.809 217.453 501.914C214.892 501.993 212.385 503.261 209.929 505.716L199.317 516.328L196.506 513.516ZM219.974 537.381C217.994 535.401 216.661 533.17 215.975 530.689C215.315 528.234 215.328 525.766 216.015 523.284C216.727 520.776 218.126 518.48 220.212 516.394C222.324 514.282 224.62 512.883 227.102 512.197C229.583 511.51 232.039 511.51 234.467 512.197C236.949 512.883 239.179 514.216 241.159 516.196C242.981 518.018 244.195 520.05 244.802 522.294C245.436 524.564 245.383 526.914 244.644 529.343C243.958 531.771 242.479 534.121 240.209 536.391C237.965 538.635 235.629 540.126 233.2 540.866C230.771 541.605 228.409 541.671 226.112 541.064C223.868 540.456 221.822 539.229 219.974 537.381ZM222.667 535.084C224.145 536.563 225.795 537.553 227.617 538.054C229.491 538.556 231.365 538.529 233.24 537.975C235.167 537.421 236.935 536.338 238.546 534.728C240.182 533.091 241.265 531.323 241.793 529.422C242.347 527.548 242.36 525.686 241.832 523.839C241.357 521.991 240.38 520.327 238.902 518.849C237.45 517.397 235.8 516.434 233.952 515.959C232.131 515.457 230.27 515.47 228.369 515.998C226.468 516.526 224.7 517.608 223.063 519.245C221.453 520.855 220.37 522.624 219.816 524.551C219.288 526.452 219.262 528.326 219.737 530.174C220.238 531.996 221.215 533.632 222.667 535.084ZM228.211 545.221L234.467 538.965L238.942 535.045L242.743 530.451L257.474 515.721L260.285 518.532L230.903 547.914L228.211 545.221ZM244.119 561.525C242.403 559.809 241.017 557.948 239.961 555.942C238.931 553.909 238.35 552.088 238.218 550.477L241.703 549.527C241.914 551.005 242.442 552.642 243.287 554.437C244.158 556.206 245.32 557.816 246.772 559.268C248.752 561.248 250.481 562.37 251.959 562.634C253.464 562.872 254.731 562.476 255.76 561.446C256.526 560.681 256.869 559.836 256.79 558.912C256.764 557.988 256.46 557.024 255.879 556.021C255.325 554.992 254.638 553.909 253.82 552.774C253.002 551.639 252.21 550.477 251.444 549.289C250.705 548.128 250.137 546.953 249.741 545.765C249.372 544.551 249.293 543.337 249.504 542.122C249.741 540.934 250.454 539.746 251.642 538.558C252.777 537.423 254.11 536.724 255.642 536.46C257.173 536.196 258.796 536.42 260.512 537.133C262.281 537.846 264.05 539.086 265.818 540.855C267.165 542.201 268.326 543.733 269.303 545.448C270.306 547.138 270.953 548.709 271.243 550.161L267.759 551.19C267.468 549.633 266.927 548.194 266.135 546.874C265.369 545.528 264.459 544.327 263.403 543.271C261.528 541.396 259.813 540.34 258.255 540.103C256.75 539.865 255.496 540.248 254.493 541.251C253.701 542.043 253.319 542.901 253.345 543.825C253.398 544.775 253.688 545.778 254.216 546.834C254.797 547.89 255.483 548.973 256.275 550.081C257.094 551.217 257.859 552.378 258.572 553.566C259.337 554.754 259.918 555.942 260.314 557.13C260.763 558.318 260.869 559.506 260.631 560.694C260.446 561.882 259.786 563.043 258.651 564.178C257.437 565.393 256.038 566.105 254.454 566.317C252.923 566.528 251.259 566.237 249.464 565.445C247.722 564.654 245.94 563.347 244.119 561.525Z" fill="#A3CDFC"/>
</g>
<g clip-path="url(#clip7_87_231)">
<path d="M462.773 548.313C460.42 547.898 458.254 547.175 456.275 546.144C454.296 545.113 452.827 543.982 451.869 542.751L454.289 539.994C455.217 541.181 456.529 542.227 458.227 543.133C459.932 544.002 461.776 544.612 463.762 544.962C466.519 545.448 468.714 545.362 470.347 544.702C472.017 544.048 472.994 542.913 473.279 541.295C473.474 540.192 473.215 539.294 472.503 538.599C471.835 537.875 470.902 537.256 469.704 536.741C468.512 536.19 467.243 535.644 465.898 535.103C464.553 534.563 463.294 533.962 462.122 533.3C460.956 532.602 460.053 531.703 459.413 530.605C458.809 529.513 458.65 528.158 458.935 526.54C459.26 524.702 460.056 523.193 461.326 522.014C462.632 520.842 464.287 520.054 466.292 519.649C468.297 519.244 470.567 519.265 473.104 519.713C474.943 520.037 476.72 520.597 478.438 521.392C480.155 522.188 481.49 523.106 482.444 524.146L480.236 526.998C479.251 525.914 478.038 525.056 476.595 524.423C475.159 523.752 473.688 523.284 472.18 523.019C469.496 522.545 467.331 522.675 465.686 523.409C464.083 524.112 463.143 525.254 462.864 526.835C462.669 527.938 462.906 528.851 463.575 529.576C464.28 530.307 465.228 530.948 466.42 531.499C467.612 532.05 468.88 532.596 470.225 533.137C471.614 533.647 472.873 534.248 474.002 534.94C475.167 535.638 476.055 536.515 476.665 537.571C477.319 538.596 477.503 539.917 477.217 541.535C476.88 543.446 476.059 544.989 474.753 546.161C473.453 547.296 471.764 548.06 469.686 548.452C467.651 548.813 465.346 548.767 462.773 548.313ZM477.349 561.915C475.989 561.675 474.726 561.206 473.56 560.508C472.388 559.846 471.505 559.046 470.913 558.108L473.514 555.609C474.022 556.381 474.667 557.026 475.448 557.542C476.228 558.059 477.152 558.412 478.218 558.6C479.468 558.82 480.67 558.672 481.822 558.155C483.005 557.681 484.322 556.662 485.773 555.098L489.484 551.147L490.077 550.683L512.019 526.859L516.045 527.569L489.101 556.538C487.564 558.163 486.171 559.395 484.924 560.237C483.67 561.115 482.434 561.674 481.216 561.915C480.035 562.161 478.746 562.161 477.349 561.915ZM488.404 553.401L486.21 522.308L490.18 523.008L492.001 550.738L488.404 553.401ZM557.069 534.518C559.68 534.978 561.703 535.866 563.139 537.181C564.619 538.465 565.502 540.118 565.79 542.14C566.078 544.162 565.713 546.448 564.695 548.998L558.478 564.904L554.563 564.214L560.789 548.253C561.883 545.489 562.003 543.197 561.148 541.379C560.33 539.566 558.451 538.401 555.509 537.882C552.605 537.37 550.017 537.748 547.747 539.016C545.513 540.29 543.78 542.486 542.548 545.605L536.529 561.034L532.613 560.344L538.84 544.382C539.933 541.618 540.053 539.327 539.199 537.508C538.344 535.69 536.465 534.524 533.56 534.012C530.582 533.487 527.97 533.898 525.723 535.246C523.476 536.594 521.705 538.897 520.41 542.156L514.579 557.164L510.664 556.473L521.505 528.531L525.255 529.193L522.132 537.228L521.558 535.649C523.395 533.395 525.481 531.886 527.815 531.123C530.148 530.359 532.657 530.214 535.341 530.687C537.363 531.043 539.029 531.697 540.34 532.649C541.694 533.57 542.659 534.763 543.234 536.23C543.853 537.666 544.04 539.291 543.796 541.105L541.833 540.304C543.753 537.8 546.01 536.075 548.603 535.129C551.232 534.19 554.055 533.987 557.069 534.518ZM569.152 566.787L584.53 527.305L588.445 527.995L580.776 547.626L578 553.05L576.346 558.559L572.902 567.448L569.152 566.787ZM585.207 569.902C582.707 569.461 580.634 568.64 578.988 567.44C577.385 566.21 576.255 564.665 575.597 562.805C574.983 560.915 574.871 558.754 575.262 556.321C575.729 553.673 576.525 551.312 577.649 549.235C578.773 547.159 580.155 545.45 581.794 544.109C583.477 542.738 585.351 541.78 587.419 541.234C589.523 540.695 591.77 540.637 594.16 541.058C596.66 541.499 598.76 542.381 600.46 543.704C602.203 544.997 603.446 546.657 604.188 548.683C604.967 550.716 605.133 553.001 604.685 555.538C604.245 558.038 603.435 560.265 602.257 562.218C601.078 564.171 599.599 565.786 597.819 567.065C596.076 568.35 594.135 569.258 591.994 569.791C589.859 570.286 587.597 570.323 585.207 569.902ZM585.765 566.418C588.191 566.846 590.443 566.655 592.519 565.846C594.601 565 596.357 563.641 597.786 561.771C599.252 559.906 600.215 557.669 600.676 555.058C601.181 552.191 600.746 549.82 599.371 547.948C597.995 546.075 595.781 544.87 592.73 544.332C590.34 543.91 588.085 544.119 585.966 544.959C583.884 545.804 582.109 547.16 580.643 549.024C579.22 550.858 578.276 553.099 577.809 555.746C577.31 558.577 577.748 560.929 579.124 562.802C580.499 564.674 582.713 565.88 585.765 566.418ZM619.385 575.928C616.701 575.455 614.454 574.547 612.644 573.204C610.877 571.831 609.604 570.128 608.825 568.095C608.083 566.069 607.932 563.806 608.373 561.306C608.956 557.997 610.192 555.182 612.08 552.861C613.974 550.504 616.319 548.813 619.115 547.79C621.918 546.73 624.937 546.485 628.172 547.055C630.856 547.529 633.085 548.434 634.858 549.77C636.669 551.113 637.945 552.797 638.687 554.823C639.466 556.856 639.635 559.123 639.194 561.623C638.611 564.932 637.372 567.765 635.478 570.123C633.59 572.443 631.245 574.134 628.442 575.194C625.676 576.26 622.657 576.505 619.385 575.928ZM620.273 572.502C622.7 572.93 624.951 572.74 627.027 571.931C629.147 571.091 630.921 569.736 632.35 567.865C633.816 566.001 634.779 563.763 635.24 561.153C635.745 558.285 635.292 555.912 633.879 554.033C632.504 552.16 630.308 550.958 627.294 550.426C624.904 550.005 622.649 550.214 620.53 551.053C618.411 551.893 616.618 553.244 615.152 555.109C613.729 556.943 612.784 559.184 612.318 561.831C611.818 564.662 612.257 567.014 613.632 568.886C615.045 570.766 617.259 571.971 620.273 572.502ZM641.105 579.474L656.482 539.992L660.398 540.683L645.02 580.164L641.105 579.474ZM664.305 583.849C661.951 583.434 659.785 582.711 657.807 581.679C655.828 580.648 654.359 579.517 653.401 578.287L655.82 575.529C656.748 576.716 658.061 577.763 659.759 578.669C661.463 579.538 663.308 580.148 665.293 580.498C668.051 580.984 670.246 580.897 671.879 580.237C673.548 579.584 674.526 578.448 674.811 576.831C675.005 575.728 674.747 574.829 674.035 574.135C673.367 573.41 672.434 572.791 671.235 572.276C670.044 571.725 668.775 571.179 667.43 570.639C666.085 570.098 664.826 569.497 663.654 568.836C662.488 568.137 661.585 567.239 660.945 566.14C660.341 565.048 660.182 563.693 660.467 562.076C660.791 560.237 661.588 558.729 662.857 557.55C664.163 556.378 665.819 555.589 667.824 555.184C669.828 554.78 672.099 554.801 674.636 555.248C676.474 555.572 678.252 556.132 679.969 556.928C681.687 557.724 683.022 558.641 683.976 559.682L681.767 562.533C680.783 561.45 679.57 560.592 678.127 559.958C676.691 559.288 675.219 558.82 673.712 558.554C671.028 558.081 668.863 558.211 667.217 558.944C665.615 559.647 664.674 560.789 664.396 562.37C664.201 563.473 664.438 564.387 665.106 565.111C665.812 565.842 666.76 566.483 667.952 567.035C669.143 567.586 670.412 568.132 671.757 568.672C673.146 569.183 674.404 569.784 675.533 570.475C676.699 571.174 677.587 572.051 678.197 573.106C678.85 574.131 679.034 575.452 678.749 577.07C678.412 578.982 677.59 580.524 676.284 581.696C674.985 582.832 673.296 583.596 671.217 583.987C669.182 584.349 666.878 584.303 664.305 583.849Z" fill="#A3CDFC"/>
</g>
<defs>
<clipPath id="clip0_87_231">
<rect width="109" height="109" fill="white" transform="translate(847.292 154.364) rotate(10)"/>
</clipPath>
<clipPath id="clip1_87_231">
<rect width="89" height="89" fill="white" transform="translate(744.291 319.048) rotate(-5)"/>
</clipPath>
<clipPath id="clip2_87_231">
<rect width="121" height="121" fill="white" transform="translate(835.185 438.173) rotate(10)"/>
</clipPath>
<clipPath id="clip3_87_231">
<rect width="85" height="85" fill="white" transform="translate(619 133)"/>
</clipPath>
<clipPath id="clip4_87_231">
<rect width="117" height="88" fill="white" transform="translate(414 281)"/>
</clipPath>
<clipPath id="clip5_87_231">
<rect width="419" height="123" fill="white" transform="translate(164 706.759) rotate(-10)"/>
</clipPath>
<clipPath id="clip6_87_231">
<rect width="343" height="153" fill="white" transform="translate(130 425)"/>
</clipPath>
<clipPath id="clip7_87_231">
<rect width="341" height="166" fill="white" transform="translate(427 468)"/>
</clipPath>
</defs>
</svg>
