<svg width="61" height="61" viewBox="0 0 61 61" fill="none" xmlns="http://www.w3.org/2000/svg">
<g id="github-icon 1" clip-path="url(#clip0_40_16)">
<path id="Vector" fill-rule="evenodd" clip-rule="evenodd" d="M30.9385 0.50092C14.3733 0.50092 0.939575 14.271 0.939575 31.2561C0.939575 44.8458 9.53439 56.3704 21.4545 60.4391C22.9549 60.7239 23.5063 59.7704 23.5063 58.9576C23.5063 58.2242 23.4764 55.8017 23.4642 53.2338C15.1175 55.0945 13.358 49.6034 13.358 49.6034C11.9937 46.0479 10.0271 45.1023 10.0271 45.1023C7.30539 43.1916 10.2342 43.2337 10.2342 43.2337C13.246 43.4494 14.8317 46.401 14.8317 46.401C17.5092 51.1031 21.852 49.7419 23.5628 48.9574C23.833 46.9697 24.6081 45.612 25.4673 44.8435C18.8035 44.0681 11.7988 41.4299 11.7988 29.644C11.7988 26.2872 12.9726 23.5423 14.8893 21.3898C14.5771 20.6134 13.5495 17.487 15.1783 13.2515C15.1783 13.2515 17.6974 12.4239 23.431 16.404C25.8228 15.724 28.3884 15.3811 30.9363 15.3698C33.4863 15.3811 36.0564 15.7228 38.4515 16.404C44.1774 12.4262 46.6942 13.2515 46.6942 13.2515C48.3252 17.4882 47.3021 20.6167 46.9899 21.3899C48.9132 23.5423 50.077 26.2872 50.077 29.644C50.077 41.4571 43.0568 44.0544 36.3786 44.8162C37.4549 45.7697 38.416 47.6417 38.416 50.5093C38.416 54.6222 38.3817 57.9369 38.3817 58.9484C38.3817 59.7669 38.9221 60.7239 40.4435 60.4242C52.3569 56.3534 60.9407 44.8274 60.9407 31.2458C60.9407 14.263 47.5092 0.49054 30.9407 0.49054L30.9385 0.500824L30.9385 0.50092Z" fill="#A3CDFC"/>
</g>
<defs>
<clipPath id="clip0_40_16">
<rect width="60" height="60" fill="white" transform="translate(0.939575 0.49054)"/>
</clipPath>
</defs>
</svg>
