<svg width="61" height="61" viewBox="0 0 61 61" fill="none" xmlns="http://www.w3.org/2000/svg">
<g id="iconmonstr-cv-4 1" clip-path="url(#clip0_40_26)">
<g id="Group">
<path id="Vector" d="M5.80095 27.9905V55.4905H28.3009H50.8009V27.9905V0.490531H28.3009H5.80095V27.9905ZM48.3009 27.9905V52.9905H28.3009H8.30095V27.9905V2.99053H28.3009H48.3009V27.9905Z" fill="#A3CDFC"/>
<path id="Vector_2" d="M19.7759 11.1655C18.7759 11.6905 18.2509 12.1655 17.6759 13.0905C16.9759 14.2405 16.9259 14.4905 16.9259 16.7405C16.9259 18.9905 16.9759 19.2405 17.6759 20.3905C19.6509 23.6155 24.3759 23.8655 26.4759 20.8655C27.5009 19.3905 27.4509 19.0905 26.1259 18.7405C25.4509 18.5405 24.9259 18.4905 24.8759 18.6405C24.5509 19.5905 24.0509 20.1905 23.2259 20.5905C22.3759 20.9905 22.1759 21.0155 21.3759 20.7155C19.8509 20.1155 19.4259 19.2905 19.4259 16.7655C19.4259 14.2655 19.8009 13.4155 21.2009 12.8405C22.4259 12.3155 23.9009 12.7405 24.4259 13.7405C24.8509 14.5655 25.0009 14.6155 26.3509 14.2155L27.3009 13.9655L26.8259 13.0405C26.2509 11.8905 25.6759 11.3655 24.4759 10.8655C23.0509 10.2655 21.3509 10.3905 19.7759 11.1655Z" fill="#A3CDFC"/>
<path id="Vector_3" d="M28.3009 10.8905C28.3009 10.9905 29.2259 13.7155 30.3759 16.9155L32.4259 22.7405L33.8009 22.6905L35.1759 22.6155L37.2259 16.8655C38.3509 13.6905 39.3009 11.0405 39.3009 10.9155C39.3009 10.8155 38.7509 10.7405 38.0759 10.7405H36.8259L35.4009 15.1155C34.6009 17.5155 33.9009 19.4405 33.8759 19.3905C33.8259 19.3405 33.1259 17.4155 32.3259 15.0905L30.8509 10.8655L29.5759 10.7905C28.8759 10.7405 28.3009 10.7905 28.3009 10.8905Z" fill="#A3CDFC"/>
<path id="Vector_4" d="M13.3009 29.2405V30.4905H28.3009H43.3009V29.2405V27.9905H28.3009H13.3009V29.2405Z" fill="#A3CDFC"/>
<path id="Vector_5" d="M13.3009 36.7405V37.9905H28.3009H43.3009V36.7405V35.4905H28.3009H13.3009V36.7405Z" fill="#A3CDFC"/>
<path id="Vector_6" d="M13.3009 44.2405V45.4905H28.3009H43.3009V44.2405V42.9905H28.3009H13.3009V44.2405Z" fill="#A3CDFC"/>
<path id="Vector_7" d="M53.301 30.4905V57.9905H30.801H8.30096V59.2405V60.4905H32.051H55.801V31.7405V2.99054H54.551H53.301V30.4905Z" fill="#A3CDFC"/>
</g>
</g>
<defs>
<clipPath id="clip0_40_26">
<rect width="60" height="60" fill="white" transform="translate(0.800934 0.49054)"/>
</clipPath>
</defs>
</svg>
