<svg width="61" height="61" viewBox="0 0 61 61" fill="none" xmlns="http://www.w3.org/2000/svg">
<g id="linkedin-square-logo 1" clip-path="url(#clip0_40_19)">
<g id="Group">
<g id="Group_2">
<path id="Vector" d="M58.6478 0.491028H3.13818C1.89828 0.491028 0.893371 1.49593 0.893371 2.73584V58.2454C0.893371 59.4855 1.89828 60.4903 3.13818 60.4903H58.6486C59.8886 60.4903 60.8934 59.4854 60.8934 58.2454V2.73584C60.8928 1.49593 59.8877 0.491028 58.6478 0.491028ZM16.8338 49.8628C16.8338 50.6896 16.1641 51.3591 15.3373 51.3591H9.34589C8.51986 51.3591 7.84935 50.6894 7.84935 49.8628V23.6754C7.84935 22.8485 8.51986 22.1789 9.34589 22.1789H15.3373C16.1641 22.1789 16.8338 22.8485 16.8338 23.6754V49.8628ZM16.8338 16.0774C16.8338 16.9043 16.1641 17.574 15.3373 17.574H9.34589C8.51986 17.574 7.84935 16.9042 7.84935 16.0774V10.7572C7.84935 9.93036 8.51986 9.2607 9.34589 9.2607H15.3373C16.1641 9.2607 16.8338 9.93036 16.8338 10.7572V16.0774ZM53.9368 49.8628C53.9368 50.6896 53.2664 51.3591 52.4402 51.3591H46.4488C45.6219 51.3591 44.9523 50.6894 44.9523 49.8628V38.8055C44.9523 35.139 44.7608 32.7676 44.3762 31.691C43.9923 30.6142 43.3691 29.7776 42.5055 29.1813C41.642 28.5842 40.6033 28.2863 39.3882 28.2863C37.8319 28.2863 36.4356 28.7128 35.1993 29.5651C33.9632 30.4182 33.1162 31.5472 32.6574 32.954C32.1995 34.3608 31.9705 36.9617 31.9705 40.7554V49.8628C31.9705 50.6896 31.3002 51.3591 30.474 51.3591H24.4826C23.6565 51.3591 22.986 50.6894 22.986 49.8628V23.6754C22.986 22.8485 23.6564 22.1789 24.4826 22.1789H29.8343C30.6612 22.1789 31.3308 22.8485 31.3308 23.6754V25.6703C31.3308 26.4972 31.7358 26.6303 32.2916 26.019C35.0871 22.9473 38.497 21.4112 42.522 21.4112C44.5042 21.4112 46.3157 21.7681 47.9573 22.482C49.5984 23.1958 50.8404 24.1071 51.6823 25.2154C52.5241 26.3235 53.1108 27.5813 53.4408 28.9881C53.7707 30.3948 53.9369 32.4091 53.9369 35.0313V49.8628H53.9368Z" fill="#A3CDFC"/>
</g>
</g>
</g>
<defs>
<clipPath id="clip0_40_19">
<rect width="60" height="60" fill="white" transform="translate(0.893372 0.49054)"/>
</clipPath>
</defs>
</svg>
