<svg width="605" height="488" viewBox="0 0 605 488" fill="none" xmlns="http://www.w3.org/2000/svg">
<g clip-path="url(#clip0_86_168)">
<line x1="7.5" y1="-7.5" x2="85.1055" y2="-7.5" transform="matrix(0.939658 0.342117 -0.341924 0.939728 177 72)" stroke="#A3CDFC" stroke-width="15" stroke-linecap="round"/>
<line x1="7.5" y1="-7.5" x2="60.4273" y2="-7.5" transform="matrix(0.341924 -0.939728 0.939658 0.342117 243.673 158.065)" stroke="#A3CDFC" stroke-width="15" stroke-linecap="round"/>
<path d="M249.286 171.425C249.286 183.736 239.309 193.714 227.005 193.714C214.702 193.714 204.724 183.736 204.724 171.425C204.724 159.113 214.702 149.135 227.005 149.135C239.309 149.135 249.286 159.113 249.286 171.425Z" stroke="#A3CDFC" stroke-width="11"/>
<line x1="7.5" y1="-7.5" x2="60.6236" y2="-7.5" transform="matrix(0.939658 -0.342117 0.341924 0.939728 387.083 64.8991)" stroke="#A3CDFC" stroke-width="15" stroke-linecap="round"/>
<line x1="7.5" y1="-7.5" x2="52.0316" y2="-7.5" transform="matrix(0.173594 -0.984817 0.984798 0.173702 386.988 111.874)" stroke="#A3CDFC" stroke-width="15" stroke-linecap="round"/>
<path d="M400.008 130.439C400.008 142.751 390.031 152.729 377.728 152.729C365.424 152.729 355.447 142.751 355.447 130.439C355.447 118.127 365.424 108.15 377.728 108.15C390.031 108.15 400.008 118.127 400.008 130.439Z" stroke="#A3CDFC" stroke-width="11"/>
<line x1="4.5" y1="-4.5" x2="69.6011" y2="-4.5" transform="matrix(0.422507 -0.906359 0.906256 0.422729 471.779 178.862)" stroke="#A3CDFC" stroke-width="9" stroke-linecap="round"/>
<path d="M475.191 191.453C475.191 200.14 468.152 207.18 459.471 207.18C450.789 207.18 443.75 200.14 443.75 191.453C443.75 182.766 450.789 175.726 459.471 175.726C468.152 175.726 475.191 182.766 475.191 191.453Z" stroke="#A3CDFC" stroke-width="7"/>
<path d="M474.468 312.241C474.468 321.764 466.75 329.482 457.234 329.482C447.717 329.482 440 321.764 440 312.241C440 302.717 447.717 295 457.234 295C466.75 295 474.468 302.717 474.468 312.241Z" stroke="#A3CDFC" stroke-width="10"/>
<line x1="7" y1="-7" x2="72.0563" y2="-7" transform="matrix(0.939658 0.342117 -0.341924 0.939728 464.645 380.94)" stroke="#A3CDFC" stroke-width="14" stroke-linecap="round"/>
<line x1="7" y1="-7" x2="47.366" y2="-7" transform="matrix(-0.173594 -0.984817 0.984798 -0.173702 475.913 380.187)" stroke="#A3CDFC" stroke-width="14" stroke-linecap="round"/>
<path d="M216.845 386.371C216.845 396.023 224.666 403.845 234.312 403.845C243.957 403.845 251.778 396.023 251.778 386.371C251.778 376.72 243.957 368.898 234.312 368.898C224.666 368.898 216.845 376.72 216.845 386.371Z" stroke="#A3CDFC" stroke-width="9"/>
<line x1="6.5" y1="-6.5" x2="109.479" y2="-6.5" transform="matrix(0.865956 0.50012 -0.49988 0.866095 119.059 326.201)" stroke="#A3CDFC" stroke-width="13" stroke-linecap="round"/>
<line x1="7.5" y1="-7.5" x2="103.461" y2="-7.5" transform="matrix(0.224157 0.974553 -0.974522 0.224293 398.51 354.727)" stroke="#A3CDFC" stroke-width="15" stroke-linecap="round"/>
<path d="M369.138 341.953L405.139 355.06" stroke="#A3CDFC" stroke-width="15" stroke-linecap="round"/>
<path d="M363.638 331.094C363.638 343.933 353.234 354.337 340.405 354.337C327.575 354.337 317.171 343.933 317.171 331.094C317.171 318.256 327.575 307.852 340.405 307.852C353.234 307.852 363.638 318.256 363.638 331.094Z" stroke="#A3CDFC" stroke-width="11"/>
<line x1="5.5" y1="-5.5" x2="127.81" y2="-5.5" transform="matrix(0.96323 0.268679 -0.26852 0.963274 93.1307 271.857)" stroke="#A3CDFC" stroke-width="11" stroke-linecap="round"/>
<line x1="5.5" y1="-5.5" x2="39.2453" y2="-5.5" transform="matrix(0.772627 -0.634861 0.634618 0.772826 220.304 307.674)" stroke="#A3CDFC" stroke-width="11" stroke-linecap="round"/>
<path d="M278.039 260.741C278.039 270.129 270.431 277.737 261.049 277.737C251.667 277.737 244.059 270.129 244.059 260.741C244.059 251.353 251.667 243.744 261.049 243.744C270.431 243.744 278.039 251.353 278.039 260.741Z" stroke="#A3CDFC" stroke-width="8"/>
<path d="M399.485 8C361.305 8.00001 306.481 38.9779 244.315 15.9943C182.149 -6.98933 163.548 117.922 155.716 132.411C147.884 146.901 53.9006 146.901 44.6002 208.857C35.2998 270.813 137.262 261.819 130.752 303.29C124.241 344.76 50.9637 458.679 130.752 470.67C210.54 482.662 313.824 470.67 313.824 470.67C313.824 470.67 403.891 471.67 423.471 455.681C443.05 439.692 521.86 479.164 539.971 439.692C558.082 400.221 509.622 295.795 520.391 266.316C531.16 236.837 623.598 202 582.557 146.901C541.516 91.8021 507.175 135.409 483.189 108.928C459.204 82.447 437.666 7.99999 399.485 8Z" stroke="#A3CDFC" stroke-width="20"/>
</g>
<defs>
<clipPath id="clip0_86_168">
<rect width="605" height="488" fill="white"/>
</clipPath>
</defs>
</svg>
